<svg width="508.968" height="69.984" viewBox="170 -60 508.968 140.984" xmlns="http://www.w3.org/2000/svg"><g id="svgGroup" text-anchor="bottom" stroke-linecap="round" fill-rule="evenodd" font-size="9pt" stroke="#72bef2" stroke-width="0.25mm" fill="#72bef2" style="stroke:#72bef2;stroke-width:0.25mm;fill:#72bef2"><path d="M 101.664 53.28 L 95.184 53.28 L 95.184 15.84 L 101.448 15.84 L 101.448 22.104 Q 103.464 19.08 106.56 17.028 A 12.388 12.388 0 0 1 113.185 14.982 A 15.017 15.017 0 0 1 113.616 14.976 A 15.115 15.115 0 0 1 116.796 15.293 Q 118.946 15.755 120.589 16.893 A 9.452 9.452 0 0 1 120.924 17.136 A 11.341 11.341 0 0 1 124.846 22.672 A 13.791 13.791 0 0 1 124.92 22.896 Q 127.152 19.584 130.212 17.28 A 11.281 11.281 0 0 1 135.101 15.204 A 15.441 15.441 0 0 1 137.808 14.976 A 15.435 15.435 0 0 1 141.327 15.352 Q 144.862 16.18 146.916 18.828 A 13.674 13.674 0 0 1 149.372 24.064 Q 149.904 26.26 149.904 28.872 L 149.904 53.28 L 143.424 53.28 L 143.424 29.376 Q 143.424 26.103 142.148 23.876 A 7.907 7.907 0 0 0 141.624 23.076 A 5.741 5.741 0 0 0 137.438 20.703 A 7.688 7.688 0 0 0 136.656 20.664 A 8.587 8.587 0 0 0 131.789 22.196 A 11.517 11.517 0 0 0 130.644 23.076 Q 127.872 25.488 125.784 28.728 L 125.784 53.28 L 119.304 53.28 L 119.304 29.376 Q 119.304 26.103 118.028 23.876 A 7.907 7.907 0 0 0 117.504 23.076 A 5.741 5.741 0 0 0 113.318 20.703 A 7.688 7.688 0 0 0 112.536 20.664 Q 109.368 20.664 106.56 23.004 Q 103.752 25.344 101.664 28.512 L 101.664 53.28 Z M 6.84 53.28 L 0 53.28 L 0 2.88 L 6.84 2.88 L 6.84 24.408 L 31.68 24.408 L 31.68 2.88 L 38.52 2.88 L 38.52 53.28 L 31.68 53.28 L 31.68 30.312 L 6.84 30.312 L 6.84 53.28 Z M 310.608 49.032 L 314.064 43.272 Q 316.656 45.432 319.896 46.8 A 16.811 16.811 0 0 0 323.763 47.887 A 23.125 23.125 0 0 0 327.456 48.168 A 20.146 20.146 0 0 0 330.73 47.919 Q 332.474 47.631 333.887 47.011 A 9.864 9.864 0 0 0 335.664 46.008 A 7.402 7.402 0 0 0 337.677 43.916 Q 338.625 42.4 338.684 40.439 A 8.724 8.724 0 0 0 338.688 40.176 A 8.597 8.597 0 0 0 338.445 38.093 A 7.068 7.068 0 0 0 337.824 36.468 Q 336.964 34.856 334.5 33.315 A 18.378 18.378 0 0 0 334.476 33.3 A 23.115 23.115 0 0 0 332.695 32.308 Q 330.485 31.19 327.168 29.952 A 65.097 65.097 0 0 1 323.851 28.562 Q 320.92 27.231 318.888 25.884 A 15.791 15.791 0 0 1 316.664 24.122 Q 315.251 22.764 314.46 21.204 Q 313.128 18.576 313.128 14.976 Q 313.128 11.376 315.108 8.46 Q 317.088 5.544 320.94 3.78 A 18.402 18.402 0 0 1 325.188 2.459 Q 327.085 2.099 329.25 2.032 A 32.564 32.564 0 0 1 330.264 2.016 Q 334.728 2.016 338.292 2.916 Q 341.856 3.816 345.24 5.472 L 342.72 11.304 Q 340.272 9.864 336.996 8.892 Q 333.72 7.92 330.12 7.92 A 19.575 19.575 0 0 0 327.219 8.122 Q 325.683 8.352 324.432 8.846 A 9.084 9.084 0 0 0 322.632 9.792 A 7.129 7.129 0 0 0 321.074 11.207 A 5.299 5.299 0 0 0 319.896 14.616 A 7.534 7.534 0 0 0 320.107 16.432 A 6.164 6.164 0 0 0 320.688 17.928 A 4.976 4.976 0 0 0 321.457 18.954 Q 322.267 19.803 323.634 20.625 A 16.923 16.923 0 0 0 323.82 20.736 Q 326.16 22.104 330.84 23.832 Q 334.815 25.31 337.617 26.896 A 25.562 25.562 0 0 1 339.732 28.224 Q 343.008 30.528 344.376 33.228 A 12.657 12.657 0 0 1 345.63 37.449 A 15.952 15.952 0 0 1 345.744 39.384 A 15.631 15.631 0 0 1 345.264 43.344 A 12.315 12.315 0 0 1 343.404 47.376 A 14.125 14.125 0 0 1 338.413 51.712 A 17.537 17.537 0 0 1 336.924 52.416 A 21.975 21.975 0 0 1 331.589 53.859 A 28.82 28.82 0 0 1 327.456 54.144 A 34.104 34.104 0 0 1 321.858 53.703 A 27.395 27.395 0 0 1 317.88 52.74 Q 313.56 51.336 310.608 49.032 Z M 392.688 68.544 L 394.128 63.144 A 7.133 7.133 0 0 0 394.967 63.557 Q 395.402 63.74 395.91 63.897 A 13.352 13.352 0 0 0 396.288 64.008 A 9.73 9.73 0 0 0 397.929 64.309 A 12.498 12.498 0 0 0 399.168 64.368 Q 402.192 64.368 404.568 62.424 A 8.642 8.642 0 0 0 405.96 60.94 Q 407.585 58.791 409.104 54.792 L 410.76 50.472 L 407.304 50.472 L 392.688 17.568 L 398.448 14.976 L 412.416 46.152 L 423.288 15.264 L 429.264 17.568 L 415.512 55.152 A 51.644 51.644 0 0 1 414.034 58.814 Q 413.24 60.571 412.4 62.002 A 22.219 22.219 0 0 1 410.976 64.152 A 17.473 17.473 0 0 1 408.904 66.464 Q 407.526 67.737 406.011 68.485 A 10.611 10.611 0 0 1 405.576 68.688 Q 402.624 69.984 399.024 69.984 A 18.302 18.302 0 0 1 397.237 69.901 Q 396.155 69.795 395.244 69.552 A 14.635 14.635 0 0 1 394.211 69.238 Q 393.728 69.07 393.329 68.885 A 6.202 6.202 0 0 1 392.688 68.544 Z M 229.536 19.584 L 229.536 0 L 236.016 0 L 236.016 44.208 A 8.748 8.748 0 0 0 236.089 45.386 Q 236.274 46.74 236.925 47.427 A 2.135 2.135 0 0 0 237.348 47.772 Q 238.68 48.6 240.264 48.6 L 238.896 53.64 A 12.854 12.854 0 0 1 235.831 53.303 Q 231.749 52.299 230.582 48.302 A 9.656 9.656 0 0 1 230.544 48.168 A 14.03 14.03 0 0 1 228.506 50.437 Q 227.45 51.394 226.116 52.272 Q 223.43 54.04 219.428 54.138 A 19.38 19.38 0 0 1 218.952 54.144 Q 214.344 54.144 210.528 51.768 A 16.338 16.338 0 0 1 205.101 46.158 A 19.888 19.888 0 0 1 204.48 45.036 Q 202.248 40.68 202.248 34.776 Q 202.248 29.088 204.516 24.624 A 19.649 19.649 0 0 1 207.842 19.879 A 17.414 17.414 0 0 1 210.564 17.568 Q 214.344 14.976 218.88 14.976 A 15.582 15.582 0 0 1 221.956 15.265 A 11.478 11.478 0 0 1 225.324 16.488 Q 227.391 17.646 228.762 18.845 A 11.945 11.945 0 0 1 229.536 19.584 Z M 498.24 19.584 L 498.24 0 L 504.72 0 L 504.72 44.208 A 8.748 8.748 0 0 0 504.793 45.386 Q 504.978 46.74 505.629 47.427 A 2.135 2.135 0 0 0 506.052 47.772 Q 507.384 48.6 508.968 48.6 L 507.6 53.64 A 12.854 12.854 0 0 1 504.535 53.303 Q 500.453 52.299 499.286 48.302 A 9.656 9.656 0 0 1 499.248 48.168 A 14.03 14.03 0 0 1 497.21 50.437 Q 496.154 51.394 494.82 52.272 Q 492.134 54.04 488.132 54.138 A 19.38 19.38 0 0 1 487.656 54.144 Q 483.048 54.144 479.232 51.768 A 16.338 16.338 0 0 1 473.805 46.158 A 19.888 19.888 0 0 1 473.184 45.036 Q 470.952 40.68 470.952 34.776 Q 470.952 29.088 473.22 24.624 A 19.649 19.649 0 0 1 476.546 19.879 A 17.414 17.414 0 0 1 479.268 17.568 Q 483.048 14.976 487.584 14.976 A 15.582 15.582 0 0 1 490.66 15.265 A 11.478 11.478 0 0 1 494.028 16.488 Q 496.095 17.646 497.466 18.845 A 11.945 11.945 0 0 1 498.24 19.584 Z M 464.616 37.224 L 438.408 37.224 Q 439.012 42.121 441.678 45.018 A 10.786 10.786 0 0 0 442.08 45.432 A 10.184 10.184 0 0 0 447.57 48.176 A 14.415 14.415 0 0 0 450.072 48.384 Q 453.312 48.384 455.904 47.7 Q 458.496 47.016 460.872 45.936 L 462.384 51.48 A 29.354 29.354 0 0 1 459.263 52.651 A 37.341 37.341 0 0 1 456.552 53.388 A 28.018 28.018 0 0 1 452.886 53.978 A 37.458 37.458 0 0 1 449.28 54.144 A 20.389 20.389 0 0 1 443.703 53.42 A 15.198 15.198 0 0 1 436.5 48.996 A 16.935 16.935 0 0 1 432.752 42.127 Q 432.026 39.608 431.845 36.611 A 33.93 33.93 0 0 1 431.784 34.56 A 25.458 25.458 0 0 1 432.383 28.928 A 20.765 20.765 0 0 1 433.908 24.516 A 17.742 17.742 0 0 1 437.52 19.417 A 16.479 16.479 0 0 1 439.848 17.532 A 15.155 15.155 0 0 1 447.235 15.032 A 18.868 18.868 0 0 1 448.704 14.976 A 20.559 20.559 0 0 1 452.643 15.333 Q 455.496 15.89 457.668 17.316 Q 461.232 19.656 463.032 23.616 A 20.293 20.293 0 0 1 464.779 30.718 A 24.073 24.073 0 0 1 464.832 32.328 A 54.147 54.147 0 0 1 464.623 37.15 A 49.896 49.896 0 0 1 464.616 37.224 Z M 76.392 18.864 L 76.392 15.84 L 82.296 15.84 L 82.296 44.208 A 8.748 8.748 0 0 0 82.369 45.386 Q 82.554 46.74 83.205 47.427 A 2.135 2.135 0 0 0 83.628 47.772 Q 84.96 48.6 86.544 48.6 L 85.176 53.64 A 12.76 12.76 0 0 1 82.105 53.3 Q 77.91 52.258 76.824 48.024 A 15.341 15.341 0 0 1 74.585 50.491 A 20.519 20.519 0 0 1 72.324 52.236 A 10.748 10.748 0 0 1 68.758 53.751 Q 67.305 54.092 65.612 54.137 A 19.587 19.587 0 0 1 65.088 54.144 Q 60.408 54.144 56.592 51.768 Q 52.776 49.392 50.508 45.036 Q 48.24 40.68 48.24 34.776 Q 48.24 29.16 50.508 24.696 Q 52.776 20.232 56.772 17.604 A 16.054 16.054 0 0 1 64.832 15.007 A 19.719 19.719 0 0 1 65.952 14.976 Q 69.192 14.976 71.82 16.092 A 18.721 18.721 0 0 1 74.906 17.743 A 15.914 15.914 0 0 1 76.392 18.864 Z M 186.696 18.864 L 186.696 15.84 L 192.6 15.84 L 192.6 44.208 A 8.748 8.748 0 0 0 192.673 45.386 Q 192.858 46.74 193.509 47.427 A 2.135 2.135 0 0 0 193.932 47.772 Q 195.264 48.6 196.848 48.6 L 195.48 53.64 A 12.76 12.76 0 0 1 192.409 53.3 Q 188.214 52.258 187.128 48.024 A 15.341 15.341 0 0 1 184.889 50.491 A 20.519 20.519 0 0 1 182.628 52.236 A 10.748 10.748 0 0 1 179.062 53.751 Q 177.609 54.092 175.916 54.137 A 19.587 19.587 0 0 1 175.392 54.144 Q 170.712 54.144 166.896 51.768 Q 163.08 49.392 160.812 45.036 Q 158.544 40.68 158.544 34.776 Q 158.544 29.16 160.812 24.696 Q 163.08 20.232 167.076 17.604 A 16.054 16.054 0 0 1 175.136 15.007 A 19.719 19.719 0 0 1 176.256 14.976 Q 179.496 14.976 182.124 16.092 A 18.721 18.721 0 0 1 185.21 17.743 A 15.914 15.914 0 0 1 186.696 18.864 Z M 273.816 18.864 L 273.816 15.84 L 279.72 15.84 L 279.72 44.208 A 8.748 8.748 0 0 0 279.793 45.386 Q 279.978 46.74 280.629 47.427 A 2.135 2.135 0 0 0 281.052 47.772 Q 282.384 48.6 283.968 48.6 L 282.6 53.64 A 12.76 12.76 0 0 1 279.529 53.3 Q 275.334 52.258 274.248 48.024 A 15.341 15.341 0 0 1 272.009 50.491 A 20.519 20.519 0 0 1 269.748 52.236 A 10.748 10.748 0 0 1 266.182 53.751 Q 264.729 54.092 263.036 54.137 A 19.587 19.587 0 0 1 262.512 54.144 Q 257.832 54.144 254.016 51.768 Q 250.2 49.392 247.932 45.036 Q 245.664 40.68 245.664 34.776 Q 245.664 29.16 247.932 24.696 Q 250.2 20.232 254.196 17.604 A 16.054 16.054 0 0 1 262.256 15.007 A 19.719 19.719 0 0 1 263.376 14.976 Q 266.616 14.976 269.244 16.092 A 18.721 18.721 0 0 1 272.33 17.743 A 15.914 15.914 0 0 1 273.816 18.864 Z M 380.736 18.864 L 380.736 15.84 L 386.64 15.84 L 386.64 44.208 A 8.748 8.748 0 0 0 386.713 45.386 Q 386.898 46.74 387.549 47.427 A 2.135 2.135 0 0 0 387.972 47.772 Q 389.304 48.6 390.888 48.6 L 389.52 53.64 A 12.76 12.76 0 0 1 386.449 53.3 Q 382.254 52.258 381.168 48.024 A 15.341 15.341 0 0 1 378.929 50.491 A 20.519 20.519 0 0 1 376.668 52.236 A 10.748 10.748 0 0 1 373.102 53.751 Q 371.649 54.092 369.956 54.137 A 19.587 19.587 0 0 1 369.432 54.144 Q 364.752 54.144 360.936 51.768 Q 357.12 49.392 354.852 45.036 Q 352.584 40.68 352.584 34.776 Q 352.584 29.16 354.852 24.696 Q 357.12 20.232 361.116 17.604 A 16.054 16.054 0 0 1 369.176 15.007 A 19.719 19.719 0 0 1 370.296 14.976 Q 373.536 14.976 376.164 16.092 A 18.721 18.721 0 0 1 379.25 17.743 A 15.914 15.914 0 0 1 380.736 18.864 Z M 75.816 43.704 L 75.816 23.616 Q 73.872 22.248 71.532 21.42 Q 69.192 20.592 66.6 20.592 A 11.466 11.466 0 0 0 63.021 21.135 A 10.097 10.097 0 0 0 60.516 22.356 Q 57.888 24.12 56.376 27.252 A 14.877 14.877 0 0 0 55.114 31.339 A 19.928 19.928 0 0 0 54.864 34.56 Q 54.864 38.592 56.376 41.724 A 12.673 12.673 0 0 0 58.612 44.997 A 11.301 11.301 0 0 0 60.552 46.62 Q 63.216 48.384 66.528 48.384 Q 69.264 48.384 71.712 47.052 A 14.004 14.004 0 0 0 75.111 44.495 A 13.011 13.011 0 0 0 75.816 43.704 Z M 186.12 43.704 L 186.12 23.616 Q 184.176 22.248 181.836 21.42 Q 179.496 20.592 176.904 20.592 A 11.466 11.466 0 0 0 173.325 21.135 A 10.097 10.097 0 0 0 170.82 22.356 Q 168.192 24.12 166.68 27.252 A 14.877 14.877 0 0 0 165.418 31.339 A 19.928 19.928 0 0 0 165.168 34.56 Q 165.168 38.592 166.68 41.724 A 12.673 12.673 0 0 0 168.916 44.997 A 11.301 11.301 0 0 0 170.856 46.62 Q 173.52 48.384 176.832 48.384 Q 179.568 48.384 182.016 47.052 A 14.004 14.004 0 0 0 185.415 44.495 A 13.011 13.011 0 0 0 186.12 43.704 Z M 273.24 43.704 L 273.24 23.616 Q 271.296 22.248 268.956 21.42 Q 266.616 20.592 264.024 20.592 A 11.466 11.466 0 0 0 260.445 21.135 A 10.097 10.097 0 0 0 257.94 22.356 Q 255.312 24.12 253.8 27.252 A 14.877 14.877 0 0 0 252.538 31.339 A 19.928 19.928 0 0 0 252.288 34.56 Q 252.288 38.592 253.8 41.724 A 12.673 12.673 0 0 0 256.036 44.997 A 11.301 11.301 0 0 0 257.976 46.62 Q 260.64 48.384 263.952 48.384 Q 266.688 48.384 269.136 47.052 A 14.004 14.004 0 0 0 272.535 44.495 A 13.011 13.011 0 0 0 273.24 43.704 Z M 380.16 43.704 L 380.16 23.616 Q 378.216 22.248 375.876 21.42 Q 373.536 20.592 370.944 20.592 A 11.466 11.466 0 0 0 367.365 21.135 A 10.097 10.097 0 0 0 364.86 22.356 Q 362.232 24.12 360.72 27.252 A 14.877 14.877 0 0 0 359.458 31.339 A 19.928 19.928 0 0 0 359.208 34.56 Q 359.208 38.592 360.72 41.724 A 12.673 12.673 0 0 0 362.956 44.997 A 11.301 11.301 0 0 0 364.896 46.62 Q 367.56 48.384 370.872 48.384 Q 373.608 48.384 376.056 47.052 A 14.004 14.004 0 0 0 379.455 44.495 A 13.011 13.011 0 0 0 380.16 43.704 Z M 229.536 43.848 L 229.536 25.272 A 11.41 11.41 0 0 0 228.016 23.707 Q 227.021 22.852 225.72 22.068 Q 223.272 20.592 220.32 20.592 A 10.761 10.761 0 0 0 216.752 21.168 A 9.637 9.637 0 0 0 214.272 22.464 A 12.017 12.017 0 0 0 210.55 26.892 A 14.346 14.346 0 0 0 210.276 27.468 A 15.977 15.977 0 0 0 209.023 32.05 A 20.242 20.242 0 0 0 208.872 34.56 Q 208.872 38.52 210.384 41.652 A 13.107 13.107 0 0 0 212.573 44.902 A 11.608 11.608 0 0 0 214.524 46.584 Q 217.152 48.384 220.392 48.384 Q 223.056 48.384 225.468 47.124 Q 227.88 45.864 229.536 43.848 Z M 498.24 43.848 L 498.24 25.272 A 11.41 11.41 0 0 0 496.72 23.707 Q 495.725 22.852 494.424 22.068 Q 491.976 20.592 489.024 20.592 A 10.761 10.761 0 0 0 485.456 21.168 A 9.637 9.637 0 0 0 482.976 22.464 A 12.017 12.017 0 0 0 479.254 26.892 A 14.346 14.346 0 0 0 478.98 27.468 A 15.977 15.977 0 0 0 477.727 32.05 A 20.242 20.242 0 0 0 477.576 34.56 Q 477.576 38.52 479.088 41.652 A 13.107 13.107 0 0 0 481.277 44.902 A 11.608 11.608 0 0 0 483.228 46.584 Q 485.856 48.384 489.096 48.384 Q 491.76 48.384 494.172 47.124 Q 496.584 45.864 498.24 43.848 Z M 438.336 31.968 L 458.856 31.968 A 17.536 17.536 0 0 0 458.565 28.666 Q 457.964 25.533 456.12 23.544 A 8.992 8.992 0 0 0 451.108 20.826 A 13.244 13.244 0 0 0 448.56 20.592 A 9.778 9.778 0 0 0 444.88 21.265 A 9.017 9.017 0 0 0 441.648 23.508 A 10.919 10.919 0 0 0 439.531 26.884 Q 438.638 29.066 438.336 31.968 Z" vector-effect="non-scaling-stroke"/></g></svg>